<svg width="35" height="35" viewBox="0 0 35 35" fill="none" xmlns="http://www.w3.org/2000/svg">
<path d="M0 13.125H35V21.875H0V13.125Z" fill="#EC1C24"/>
<path d="M29.5312 5.46875H5.46875C1.84461 5.46875 0 8.16211 0 11.4844V13.125H35V11.4844C35 8.16211 33.1554 5.46875 29.5312 5.46875Z" fill="#1B75BB"/>
<path d="M0 23.5156C0 26.8379 1.84461 29.5312 5.46875 29.5312H29.5312C33.1554 29.5312 35 26.8379 35 23.5156V21.875H0V23.5156Z" fill="#29B473"/>
<path fill-rule="evenodd" clip-rule="evenodd" d="M19.3325 19.2663C18.6254 20.3655 17.1543 21.0617 15.6148 20.6133C14.1629 20.1883 13.1654 18.7812 13.249 17.2636C13.3289 15.739 14.4729 14.4418 15.9615 14.1771C17.5382 13.8987 18.8031 14.7431 19.3456 15.6263C18.703 14.9985 17.9582 14.713 17.0854 14.8142C16.4023 14.8929 15.8303 15.2014 15.384 15.722C14.5079 16.7408 14.5397 18.2704 15.4551 19.2329C15.979 19.7853 16.6238 20.0729 17.3856 20.0801C18.1452 20.0855 18.7894 19.7979 19.3325 19.2663Z" fill="#E6E7E8"/>
<path d="M21.7834 17.8379L22.6147 17.4376L21.7834 17.0351L22.0897 16.1672L21.2174 16.4718L20.8155 15.6411L20.4163 16.4718L19.5456 16.1672L19.8475 17.0351L19.0195 17.4376L19.8475 17.8379L19.5456 18.7085L20.4163 18.405L20.8155 19.2335L21.2174 18.405L22.0897 18.7085L21.7834 17.8379Z" fill="#E6E7E8"/>
</svg>
