<svg width="35" height="35" viewBox="0 0 35 35" fill="none" xmlns="http://www.w3.org/2000/svg">
<path d="M0 13.6719H35V21.3281H0V13.6719Z" fill="#F9CB38"/>
<path d="M29.5312 5.46875H5.46875C1.84461 5.46875 0 8.16211 0 11.4844V13.6719H35V11.4844C35 8.16211 33.1554 5.46875 29.5312 5.46875Z" fill="#EC1C24"/>
<path d="M0 23.5156C0 26.8379 1.84461 29.5312 5.46875 29.5312H29.5312C33.1554 29.5312 35 26.8379 35 23.5156V21.3281H0V23.5156Z" fill="#137A08"/>
<path d="M17.378 14.123L18.4428 16.2805L20.8245 16.6294L19.1023 18.3094L19.5092 20.679L17.378 19.5595L15.2474 20.679L15.6543 18.3094L13.9316 16.6294L16.3138 16.2805L17.378 14.123Z" fill="#25333A"/>
</svg>
