<svg width="35" height="35" viewBox="0 0 35 35" fill="none" xmlns="http://www.w3.org/2000/svg">
<g clip-path="url(#clip0_254_2082)">
<path d="M31.1111 4.86133H3.88889C2.85749 4.86133 1.86834 5.27105 1.13903 6.00036C0.409721 6.72967 0 7.71882 0 8.75022L0 26.2502C0 27.2816 0.409721 28.2708 1.13903 29.0001C1.86834 29.7294 2.85749 30.1391 3.88889 30.1391H31.1111C32.1425 30.1391 33.1317 29.7294 33.861 29.0001C34.5903 28.2708 35 27.2816 35 26.2502V8.75022C35 7.71882 34.5903 6.72967 33.861 6.00036C33.1317 5.27105 32.1425 4.86133 31.1111 4.86133Z" fill="#EEEEEE"/>
<path d="M20.4167 4.86133H14.5833V14.5836H0V20.4169H14.5833V30.1391H20.4167V20.4169H35V14.5836H20.4167V4.86133Z" fill="#CE1124"/>
</g>
<defs>
<clipPath id="clip0_254_2082">
<rect width="35" height="35" fill="white"/>
</clipPath>
</defs>
</svg>
