<svg width="301" height="80" viewBox="0 0 301 80" fill="none" xmlns="http://www.w3.org/2000/svg">
<path d="M0 62C0 66.4183 3.58172 70 8 70C12.4183 70 16 66.4183 16 62C16 57.5817 12.4183 54 8 54C3.58172 54 0 57.5817 0 62ZM132.165 48.363L133.615 48.7452L132.165 48.363ZM86.1832 18.0294L87.6396 17.6703L86.1832 18.0294ZM295.071 79.4373C295.864 79.6744 296.7 79.2231 296.937 78.4293L300.801 65.494C301.038 64.7003 300.587 63.8646 299.793 63.6275C298.999 63.3904 298.164 63.8416 297.927 64.6354L294.492 76.1334L282.994 72.699C282.2 72.4619 281.365 72.9131 281.127 73.7069C280.89 74.5007 281.342 75.3364 282.135 75.5735L295.071 79.4373ZM7.94657 63.499C9.22992 63.5448 10.5767 63.6066 11.9815 63.6821L12.1424 60.6864C10.7231 60.6102 9.35795 60.5475 8.05343 60.501L7.94657 63.499ZM20.1003 64.2066C22.6995 64.3956 25.421 64.6081 28.2408 64.8328L28.479 61.8423C25.657 61.6174 22.9275 61.4043 20.3179 61.2145L20.1003 64.2066ZM36.3939 65.4861C39.0558 65.6981 41.7762 65.9111 44.5359 66.1169L44.759 63.1252C42.0064 62.9199 39.2915 62.7073 36.632 62.4956L36.3939 65.4861ZM52.7005 66.6907C55.4117 66.8677 58.1431 67.0306 60.8781 67.1722L61.0332 64.1762C58.3137 64.0355 55.596 63.8733 52.896 63.6971L52.7005 66.6907ZM69.068 67.5252C71.821 67.6176 74.5618 67.6808 77.273 67.7072L77.3022 64.7073C74.6177 64.6813 71.901 64.6186 69.1687 64.5268L69.068 67.5252ZM85.4806 67.6643C88.2828 67.6036 91.0337 67.4923 93.7125 67.3211L93.5211 64.3272C90.8898 64.4954 88.1815 64.6051 85.4157 64.665L85.4806 67.6643ZM101.94 66.5663C104.797 66.2143 107.537 65.7707 110.128 65.2206L109.504 62.286C107.012 62.8153 104.359 63.2456 101.573 63.5888L101.94 66.5663ZM118.175 62.9689C121.032 61.9323 123.609 60.6826 125.822 59.1783L124.136 56.6972C122.174 58.0304 119.832 59.1761 117.152 60.1489L118.175 62.9689ZM131.899 52.8855C132.648 51.6047 133.225 50.2254 133.615 48.7452L130.714 47.9808C130.394 49.1966 129.922 50.3236 129.309 51.371L131.899 52.8855ZM133.615 48.7452C133.951 47.4703 134.196 46.1993 134.356 44.9354L131.379 44.5594C131.236 45.6928 131.016 46.834 130.714 47.9808L133.615 48.7452ZM134.306 37.2024C133.956 34.6451 133.289 32.156 132.368 29.7607L129.568 30.8374C130.413 33.0358 131.018 35.3004 131.333 37.609L134.306 37.2024ZM128.939 22.9348C127.6 20.7874 126.071 18.7486 124.41 16.8406L122.148 18.8104C123.713 20.6084 125.145 22.5202 126.394 24.5227L128.939 22.9348ZM119.047 11.4982C117.104 9.81434 115.072 8.28905 113.008 6.94757L111.373 9.46275C113.321 10.7291 115.243 12.1715 117.082 13.7652L119.047 11.4982ZM106.339 3.29939C103.845 2.18866 101.374 1.37627 99.0311 0.92106L98.4589 3.86598C100.541 4.27052 102.794 5.00463 105.119 6.04003L106.339 3.29939ZM91.0356 1.00464C88.1939 1.81286 85.9362 3.62972 84.7501 6.5724L87.5325 7.69396C88.3407 5.68892 89.8214 4.46894 91.8563 3.89021L91.0356 1.00464ZM84.0103 14.5675C84.1559 15.7633 84.3934 17.0364 84.7268 18.3886L87.6396 17.6703C87.3314 16.4206 87.1176 15.2669 86.9884 14.2051L84.0103 14.5675ZM84.7268 18.3886C85.0891 19.8577 85.694 21.2287 86.5156 22.5046L89.0379 20.8804C88.3857 19.8677 87.9184 18.8009 87.6396 17.6703L84.7268 18.3886ZM92.7598 28.4156C94.9165 29.7932 97.4339 31.0123 100.249 32.1021L101.332 29.3044C98.6505 28.2664 96.3221 27.1312 94.3746 25.8873L92.7598 28.4156ZM108.003 34.6093C110.49 35.2855 113.133 35.9047 115.913 36.4764L116.517 33.5378C113.787 32.9765 111.206 32.3713 108.79 31.7145L108.003 34.6093ZM123.894 37.9368C126.476 38.3585 129.148 38.7519 131.896 39.1226L132.297 36.1495C129.572 35.782 126.928 35.3926 124.377 34.976L123.894 37.9368ZM139.903 40.1193C142.521 40.4211 145.193 40.7085 147.911 40.9855L148.215 38.001C145.508 37.7251 142.849 37.439 140.247 37.139L139.903 40.1193ZM155.918 41.7644C158.557 42.0104 161.229 42.2508 163.927 42.4889L164.19 39.5005C161.496 39.2627 158.83 39.0228 156.197 38.7773L155.918 41.7644ZM171.935 43.1864C174.59 43.4158 177.26 43.6461 179.942 43.8804L180.203 40.8918C177.52 40.6573 174.847 40.4269 172.193 40.1975L171.935 43.1864ZM187.945 44.5927C190.609 44.8353 193.276 45.0847 195.94 45.344L196.23 42.3581C193.559 42.0981 190.886 41.8481 188.217 41.6051L187.945 44.5927ZM203.922 46.1553C206.591 46.4392 209.248 46.7361 211.888 47.0489L212.241 44.0698C209.588 43.7554 206.918 43.4572 204.24 43.1721L203.922 46.1553ZM219.832 48.0493C222.502 48.4072 225.146 48.785 227.756 49.1861L228.212 46.2209C225.58 45.8166 222.917 45.436 220.23 45.0759L219.832 48.0493ZM235.653 50.493C238.318 50.9683 240.937 51.4727 243.501 52.0102L244.117 49.074C241.52 48.5297 238.871 48.0196 236.18 47.5396L235.653 50.493ZM251.279 53.7885C253.915 54.446 256.476 55.1461 258.952 55.8932L259.818 53.0211C257.291 52.2585 254.683 51.5457 252.005 50.8777L251.279 53.7885ZM266.468 58.4106C269.035 59.366 271.478 60.3857 273.784 61.4755L275.066 58.7632C272.674 57.6327 270.151 56.5805 267.514 55.5991L266.468 58.4106ZM280.704 65.2274C283.001 66.6628 285.09 68.1963 286.954 69.836L288.935 67.5836C286.934 65.8229 284.711 64.1938 282.294 62.6834L280.704 65.2274ZM292.149 75.4877C292.902 76.5265 293.58 77.6009 294.18 78.7127L296.82 77.2873C296.155 76.0554 295.406 74.8695 294.579 73.7278L292.149 75.4877Z" fill="#7FBAFF"/>
</svg>
