<svg width="98" height="183" viewBox="0 0 98 183" fill="none" xmlns="http://www.w3.org/2000/svg">
<path d="M26.334 11.5C26.334 17.391 31.1096 22.1667 37.0006 22.1667C42.8917 22.1667 47.6673 17.391 47.6673 11.5C47.6673 5.60896 42.8917 0.833333 37.0006 0.833333C31.1096 0.833333 26.334 5.60896 26.334 11.5ZM37.0011 99L36.665 97.0285L37.0011 99ZM57 46L58.7438 46.9794L57 46ZM77.9142 168.914C78.6953 168.133 78.6953 166.867 77.9142 166.086L65.1863 153.358C64.4052 152.577 63.1389 152.577 62.3579 153.358C61.5768 154.139 61.5768 155.405 62.3579 156.186L73.6716 167.5L62.3579 178.814C61.5768 179.595 61.5768 180.861 62.3579 181.642C63.1389 182.423 64.4052 182.423 65.1863 181.642L77.9142 168.914ZM35.6158 10.057C29.2446 16.1716 22.1288 25.4399 16.0178 35.7012C9.90778 45.9609 4.72162 57.3481 2.30589 67.7287C-0.0845449 78.0006 0.112769 87.8607 5.6087 94.4541C11.1771 101.134 21.4891 103.673 37.3371 100.972L36.665 97.0285C21.267 99.6531 12.8518 96.8963 8.68126 91.893C4.43828 86.8028 3.88499 78.5909 6.20178 68.6354C8.49327 58.7887 13.4722 47.7932 19.4545 37.7479C25.436 27.7041 32.3399 18.7451 38.3855 12.943L35.6158 10.057ZM37.3371 100.972C82.3276 93.3027 98.2916 60.9231 97.3734 39.4147C97.1443 34.0491 95.8574 29.2415 93.5803 25.6611C91.2818 22.0469 87.9043 19.6081 83.6551 19.3779C79.4803 19.1518 74.9134 21.0851 70.2058 25.1968C65.4845 29.3205 60.4463 35.7797 55.2562 45.0206L58.7438 46.9794C63.8037 37.9703 68.578 31.9295 72.8372 28.2095C77.1101 24.4774 80.6917 23.2232 83.4387 23.3721C86.1114 23.5169 88.4293 25.0156 90.2051 27.8077C92.0022 30.6335 93.1685 34.701 93.377 39.5853C94.2091 59.0769 79.6737 89.6974 36.665 97.0285L37.3371 100.972ZM55.2562 45.0206C43.522 65.9133 32.237 96.6263 32.0186 122.279C31.9093 135.116 34.5703 146.953 41.6288 155.609C48.7474 164.339 60.0606 169.5 76.5 169.5V165.5C60.9394 165.5 50.9046 160.655 44.7288 153.082C38.493 145.434 35.9133 134.669 36.0185 122.313C36.2291 97.5804 47.1941 67.5434 58.7438 46.9794L55.2562 45.0206Z" fill="white"/>
</svg>
