<svg width="307" height="61" viewBox="0 0 307 61" fill="none" xmlns="http://www.w3.org/2000/svg">
<path d="M119.787 12.8048H119.603L120.008 25.9814H111.834V2.65883H123.285L127.997 15.2095H128.182L132.268 2.65883H144.087V25.9814H135.582L135.84 12.8707L135.619 12.8378L130.759 25.9814H124.573L119.787 12.8048ZM145.921 25.9814L156.194 2.65883H165.509L175.671 25.9814H166.135L164.772 22.5555H156.488L155.199 25.9814H145.921ZM162.821 16.5601L160.722 10.7954L158.587 16.5601H162.821ZM194.278 25.9814L189.566 19.1625L185.037 25.9814H174.654L183.969 13.826L175.133 2.65883H185.7L189.823 8.78595L193.763 2.65883H204.072L195.383 13.7272L204.993 25.9814H194.278ZM206.974 25.9814V2.65883H215.81V25.9814H206.974ZM228.625 12.8048H228.441L228.846 25.9814H220.672V2.65883H232.122L236.835 15.2095H237.019L241.106 2.65883H252.925V25.9814H244.42L244.678 12.8707L244.457 12.8378L239.597 25.9814H233.411L228.625 12.8048ZM269.488 26.6402C265.585 26.6402 262.59 25.7289 260.504 23.9061C258.442 22.0833 257.411 19.7225 257.411 16.8237V2.65883H266.174V15.9672C266.174 17.0872 266.469 17.9656 267.058 18.6025C267.671 19.2174 268.531 19.5249 269.635 19.5249C270.74 19.5249 271.587 19.2174 272.176 18.6025C272.789 17.9656 273.096 17.0872 273.096 15.9672V2.65883H281.822V16.8237C281.822 19.7006 280.742 22.0614 278.582 23.9061C276.447 25.7289 273.415 26.6402 269.488 26.6402ZM294.87 26.6402C292.808 26.6402 290.795 26.3218 288.832 25.6849C286.892 25.048 285.248 24.1915 283.898 23.1155L289.237 17.9107C289.874 18.5476 290.71 19.0856 291.741 19.5249C292.772 19.9641 293.803 20.1837 294.833 20.1837C296.133 20.1837 296.785 19.8213 296.785 19.0966C296.785 18.6794 296.502 18.339 295.938 18.0754C295.373 17.8119 294.121 17.3947 292.183 16.8237C290.095 16.2088 288.451 15.3853 287.249 14.3531C286.045 13.3208 285.445 11.8714 285.445 10.0048C285.445 8.62124 285.763 7.4024 286.402 6.34828C287.065 5.27219 287.936 4.42669 289.016 3.81178C290.095 3.19688 291.249 2.74667 292.477 2.46118C293.729 2.15372 295.029 2 296.38 2C298.122 2 299.878 2.30746 301.645 2.92236C303.436 3.53727 304.995 4.38277 306.321 5.45886L300.872 10.433C300.307 9.81812 299.594 9.33497 298.736 8.98359C297.901 8.61025 297.116 8.42359 296.38 8.42359C294.955 8.42359 294.244 8.77496 294.244 9.47772C294.244 9.80713 294.416 10.0597 294.76 10.2354C295.103 10.3891 295.791 10.6197 296.822 10.9271C297.533 11.1467 298.098 11.3224 298.515 11.4542C298.932 11.5641 299.484 11.7507 300.172 12.0142C300.883 12.2777 301.448 12.5303 301.866 12.7719C302.308 13.0135 302.786 13.3319 303.302 13.7272C303.841 14.1225 304.259 14.5288 304.554 14.946C304.848 15.3632 305.093 15.8684 305.29 16.4613C305.511 17.0323 305.621 17.6472 305.621 18.306C305.621 20.9414 304.554 22.9948 302.418 24.4661C300.283 25.9155 297.766 26.6402 294.87 26.6402ZM119.787 43.2123H119.603L120.008 56.3889H111.834V33.0664H123.285L127.997 45.6171H128.182L132.268 33.0664H144.087V56.3889H135.582L135.84 43.2782L135.619 43.2453L130.759 56.3889H124.573L119.787 43.2123ZM148.94 56.3889V33.0664H166.871V39.5888H157.188V41.5982H166.282V47.6924H157.188V49.8665H167.497V56.3889H148.94ZM181.582 56.3889H171.125V33.0664H180.845C182.563 33.0664 184.159 33.1762 185.632 33.3958C187.104 33.6153 188.516 34.0106 189.866 34.5817C191.241 35.1306 192.394 35.8334 193.327 36.6899C194.284 37.5245 195.045 38.6224 195.61 39.9841C196.175 41.3236 196.456 42.861 196.456 44.5959C196.456 46.5724 196.051 48.3402 195.241 49.8995C194.431 51.4367 193.314 52.6665 191.891 53.5889C190.492 54.5113 188.921 55.2141 187.178 55.6972C185.435 56.1583 183.57 56.3889 181.582 56.3889ZM181.508 39.7205H179.557V49.6689H181.177C185.448 49.6689 187.583 47.9559 187.583 44.53C187.583 43.0366 187.031 41.8617 185.926 41.0053C184.846 40.1488 183.373 39.7205 181.508 39.7205ZM200.141 56.3889V33.0664H208.978V56.3889H200.141ZM210.821 56.3889L221.094 33.0664H230.409L240.571 56.3889H231.035L229.673 52.963H221.388L220.1 56.3889H210.821ZM227.721 46.9677L225.623 41.2029L223.487 46.9677H227.721Z" fill="white"/>
<path d="M69.3186 3.64648L36.1816 20.9015V57.9999L69.3186 39.0194V3.64648Z" fill="#0E0E0E"/>
<path d="M3.0447 5.29297L36.1816 21.7637V57.1758L3.0447 39.058V5.29297Z" fill="#0E0E0E"/>
<path d="M36.1816 40.7064V57.1771L52.7501 48.1182V31.6475L36.1816 40.7064Z" fill="white"/>
<path d="M36.1816 40.7064V57.1771L19.6132 48.1182V31.6475L36.1816 40.7064Z" fill="white"/>
<path d="M70.3992 6.94043V3.81862L67.5632 5.12354L36.195 19.5569L5.74286 5.13294L2.88672 3.7801V6.94043V39.8819V41.0894L3.95526 41.6518L35.2513 58.1225L36.1694 58.6057L37.0931 58.1334L69.3096 41.6627L70.3992 41.1056V39.8819V6.94043Z" stroke="white" stroke-width="4"/>
</svg>
