<svg width="41" height="41" viewBox="0 0 41 41" fill="none" xmlns="http://www.w3.org/2000/svg">
<path d="M39 20.5C39 24.3828 37.7783 28.1672 35.508 31.3171C33.2376 34.4671 30.0338 36.8228 26.3502 38.0506C22.6666 39.2785 18.6901 39.3162 14.9839 38.1585C11.2776 37.0008 8.02965 34.7063 5.69995 31.6M2.35514 24.1075C1.82175 21.4247 1.88992 18.657 2.55473 16.0036C3.21954 13.3503 4.46446 10.8775 6.19984 8.76309C7.93521 6.64872 10.1179 4.94549 12.5906 3.77604C15.0633 2.60658 17.7646 2.00001 20.5 2M26.05 20.5H20.5M20.5 20.5H14.95M20.5 20.5V14.95M20.5 20.5V26.05M25.125 2.58275C31.6259 4.25515 36.743 9.37225 38.4172 15.875" stroke="white" stroke-width="3.5" stroke-linecap="round"/>
</svg>
