<svg width="38" height="30" viewBox="0 0 38 30" fill="none" xmlns="http://www.w3.org/2000/svg">
<path d="M16.0537 21.5625C16.8136 22.3125 17.7952 22.68 18.9984 22.665C20.2017 22.65 21.0882 22.22 21.6582 21.375L32.2973 5.625L16.3386 16.125C15.4837 16.6875 15.0328 17.5469 14.986 18.7031C14.9391 19.8594 15.295 20.8125 16.0537 21.5625ZM18.9984 2.37642e-06C20.8666 2.37642e-06 22.6638 0.258128 24.3902 0.774378C26.1165 1.29063 27.739 2.06375 29.2576 3.09375L25.6479 5.34375C24.6029 4.8125 23.5188 4.41438 22.3953 4.14938C21.2719 3.88438 20.1396 3.75125 18.9984 3.75C14.7871 3.75 11.2008 5.21063 8.23961 8.13188C5.27839 11.0531 3.79842 14.5925 3.79968 18.75C3.79968 20.0625 3.98207 21.3594 4.34684 22.6406C4.71161 23.9219 5.22583 25.125 5.88951 26.25H32.1073C32.8356 25.0625 33.3663 23.8281 33.6994 22.5469C34.0325 21.2656 34.1984 19.9375 34.1972 18.5625C34.1972 17.4375 34.0623 16.3437 33.7925 15.2812C33.5227 14.2187 33.1193 13.1875 32.5823 12.1875L34.8621 8.625C35.812 10.0938 36.5644 11.6563 37.1191 13.3125C37.6739 14.9688 37.9664 16.6875 37.9968 18.4688C38.0285 20.25 37.8227 21.9531 37.3794 23.5781C36.9361 25.2031 36.287 26.75 35.432 28.2187C35.0837 28.7812 34.6088 29.2187 34.0072 29.5312C33.4055 29.8437 32.7723 30 32.1073 30H5.88951C5.22456 30 4.59128 29.8437 3.98967 29.5312C3.38805 29.2187 2.91309 28.7812 2.56479 28.2187C1.74152 26.8125 1.10824 25.32 0.664944 23.7412C0.221648 22.1625 0 20.4987 0 18.75C0 16.1562 0.499025 13.7263 1.49708 11.46C2.49513 9.19375 3.85668 7.21 5.58174 5.50875C7.30679 3.805 9.32442 2.46063 11.6346 1.47563C13.9448 0.490628 16.3994 -0.00124762 18.9984 2.37642e-06Z" fill="white"/>
</svg>
