<svg width="36" height="36" viewBox="0 0 36 36" fill="none" xmlns="http://www.w3.org/2000/svg">
<path d="M18 0C8.0589 0 0 8.0589 0 18C0 27.9411 8.0589 36 18 36C27.9411 36 36 27.9411 36 18C36 8.0589 27.9411 0 18 0ZM18 3.91113C25.7811 3.91113 32.0867 10.2209 32.0867 18C32.0867 25.7792 25.7811 32.0867 18 32.0867C10.2189 32.0867 3.91332 25.7792 3.91332 18C3.91335 10.2209 10.2189 3.91113 18 3.91113ZM24.8972 9.45264L14.4646 19.8874L11.0808 16.5037L7.76073 19.8215L11.1445 23.2053L14.4866 26.5474L17.8045 23.2273L28.2392 12.7947L24.8972 9.45264Z" fill="white"/>
</svg>
