<svg width="32" height="32" viewBox="0 0 32 32" fill="none" xmlns="http://www.w3.org/2000/svg">
<path fill-rule="evenodd" clip-rule="evenodd" d="M16 32C24.8366 32 32 24.8366 32 16C32 7.16344 24.8366 0 16 0C7.16344 0 0 7.16344 0 16C0 24.8366 7.16344 32 16 32ZM25.1988 12.5451C25.7917 11.9665 25.8032 11.0168 25.2246 10.424C24.6459 9.83111 23.6962 9.8196 23.1034 10.3982L14.2535 19.036L8.89694 13.8078C8.30409 13.2291 7.35441 13.2407 6.77577 13.8335C6.19713 14.4264 6.20865 15.376 6.8015 15.9547L13.2058 22.2055L14.2535 23.2281L15.3013 22.2055L25.1988 12.5451Z" fill="#F5F5F5"/>
</svg>
