<svg width="41" height="27" viewBox="0 0 41 27" fill="none" xmlns="http://www.w3.org/2000/svg">
<path d="M0 0V24.9231H21.1243C20.6894 23.5827 20.4683 22.1804 20.4693 20.7692H8.18772C8.18772 19.6676 7.7564 18.611 6.98866 17.832C6.22091 17.053 5.17962 16.6154 4.09386 16.6154V8.30769C6.36595 8.30769 8.18772 6.45923 8.18772 4.15385H28.657C28.657 5.25551 29.0883 6.31206 29.8561 7.09106C30.6238 7.87006 31.6651 8.30769 32.7509 8.30769V8.43231C34.1223 8.43231 35.4938 8.68154 36.8447 9.13846V0H0ZM18.4224 6.23077C14.9426 6.29308 12.2816 8.93077 12.2816 12.4615C12.2816 15.9923 14.9426 18.5677 18.4224 18.6923C19.2002 18.6923 19.9985 18.5262 20.7559 18.2146C21.3085 15.93 22.2297 13.77 24.5017 11.6515C24.2561 8.88923 21.677 6.16846 18.4224 6.23077ZM38.1343 13.0223L30.2127 21.1223L27.4493 18.2769L24.5632 21.2262L30.1922 27L41 15.9508L38.1343 13.0223Z" fill="#F5F5F5"/>
</svg>
