<svg width="35" height="35" viewBox="0 0 35 35" fill="none" xmlns="http://www.w3.org/2000/svg">
<path d="M35 23.5156C35 26.8379 33.1554 29.5312 29.5312 29.5312H5.46875C1.84461 29.5312 0 26.8379 0 23.5156V11.4844C0 8.16211 1.84461 5.46875 5.46875 5.46875H29.5312C33.1554 5.46875 35 8.16211 35 11.4844V23.5156Z" fill="#EC1C24"/>
<path fill-rule="evenodd" clip-rule="evenodd" d="M21.7526 20.9563C20.4937 22.9202 17.8726 24.1588 15.13 23.3577C12.5416 22.5997 10.7637 20.0917 10.9108 17.3869C11.0541 14.67 13.0951 12.3595 15.7474 11.8908C18.5578 11.3915 20.8153 12.8981 21.7794 14.4753C20.637 13.352 19.3087 12.8462 17.7533 13.0239C16.5349 13.1639 15.5166 13.7146 14.7193 14.6443C13.1585 16.461 13.2159 19.1855 14.8456 20.9C15.7802 21.8833 16.9297 22.3979 18.2865 22.4105C19.6422 22.4203 20.7923 21.9073 21.7559 20.9591" fill="white"/>
<path d="M24.1887 15.5293L25.2989 16.5596L26.7798 16.2315L26.1416 17.6096L26.9122 18.9117L25.4083 18.7307L24.4026 19.8682L24.1122 18.3796L22.7188 17.7759L24.0433 17.0409L24.1887 15.5293Z" fill="white"/>
</svg>
