<svg width="1073" height="299" viewBox="0 0 1073 299" fill="none" xmlns="http://www.w3.org/2000/svg">
<path d="M34.8326 146.5C34.8326 156.809 43.1899 165.167 53.4992 165.167C63.8085 165.167 72.1659 156.809 72.1659 146.5C72.1659 136.191 63.8085 127.833 53.4992 127.833C43.1899 127.833 34.8326 136.191 34.8326 146.5ZM803.999 255.5L804.687 258.932L803.999 255.5ZM905.499 14.5002L907.515 17.3616L905.499 14.5002ZM1072.28 239.207C1072.95 237.393 1072.02 235.381 1070.21 234.715L1040.64 223.851C1038.82 223.185 1036.81 224.115 1036.15 225.93C1035.48 227.744 1036.41 229.755 1038.22 230.422L1064.51 240.078L1054.85 266.36C1054.18 268.175 1055.11 270.186 1056.93 270.853C1058.74 271.519 1060.75 270.589 1061.42 268.775L1072.28 239.207ZM51.3282 143.755C49.3125 145.349 47.3606 146.929 45.4719 148.494L49.9389 153.884C51.7847 152.354 53.6949 150.808 55.6703 149.245L51.3282 143.755ZM34.8892 157.72C31.2134 161.104 27.8449 164.422 24.7773 167.674L29.8692 172.477C32.8132 169.356 36.0633 166.154 39.6308 162.869L34.8892 157.72ZM15.7739 178.122C12.5289 182.298 9.80189 186.373 7.58536 190.351L13.7001 193.758C15.7196 190.134 18.2417 186.355 21.3012 182.417L15.7739 178.122ZM1.90495 203.864C0.490161 208.988 0.00772905 213.948 0.453395 218.728L7.42317 218.079C7.06396 214.226 7.43997 210.119 8.65249 205.727L1.90495 203.864ZM4.92058 233.149C7.20713 237.328 10.288 241.221 14.0559 244.848L18.91 239.804C15.5692 236.589 12.9548 233.249 11.0615 229.789L4.92058 233.149ZM25.4277 253.752C29.2036 256.208 33.3596 258.533 37.8644 260.734L40.9381 254.445C36.6507 252.35 32.7477 250.163 29.2439 247.884L25.4277 253.752ZM51.0156 266.448C55.2182 268.078 59.6471 269.633 64.2882 271.116L66.4187 264.448C61.8982 263.004 57.6038 261.495 53.5466 259.922L51.0156 266.448ZM77.6731 275.041C82.1393 276.244 86.7665 277.392 91.5452 278.489L93.1105 271.666C88.4102 270.588 83.8684 269.46 79.4935 268.282L77.6731 275.041ZM104.964 281.353C109.529 282.26 114.212 283.125 119.006 283.949L120.193 277.051C115.453 276.235 110.83 275.381 106.328 274.487L104.964 281.353ZM132.514 286.123C137.108 286.814 141.792 287.472 146.56 288.098L147.471 281.158C142.744 280.537 138.104 279.885 133.555 279.201L132.514 286.123ZM160.204 289.775C164.791 290.302 169.448 290.802 174.171 291.275L174.869 284.31C170.179 283.84 165.556 283.344 161.003 282.821L160.204 289.775ZM187.998 292.569C192.566 292.968 197.19 293.343 201.864 293.695L202.391 286.715C197.742 286.365 193.146 285.992 188.606 285.596L187.998 292.569ZM215.874 294.675C220.422 294.969 225.015 295.243 229.647 295.497L230.031 288.508C225.42 288.255 220.85 287.982 216.325 287.69L215.874 294.675ZM243.665 296.202C248.245 296.412 252.861 296.603 257.51 296.777L257.772 289.782C253.142 289.609 248.546 289.418 243.985 289.209L243.665 296.202ZM271.404 297.243C276.05 297.38 280.725 297.501 285.427 297.606L285.583 290.607C280.898 290.503 276.24 290.383 271.612 290.246L271.404 297.243ZM299.235 297.865C303.862 297.936 308.511 297.993 313.181 298.034L313.243 291.034C308.588 290.993 303.954 290.937 299.343 290.866L299.235 297.865ZM327.12 298.114C331.725 298.127 336.348 298.126 340.985 298.111L340.963 291.111C336.339 291.126 331.73 291.127 327.139 291.115L327.12 298.114ZM354.942 298.027C359.562 297.987 364.196 297.933 368.839 297.867L368.74 290.868C364.109 290.934 359.488 290.987 354.88 291.027L354.942 298.027ZM382.731 297.634C387.37 297.544 392.018 297.443 396.672 297.329L396.501 290.331C391.859 290.444 387.223 290.546 382.595 290.635L382.731 297.634ZM410.559 296.957C415.188 296.822 419.821 296.675 424.456 296.518L424.219 289.522C419.595 289.679 414.973 289.825 410.355 289.96L410.559 296.957ZM438.364 296.014C442.999 295.836 447.634 295.647 452.266 295.448L451.965 288.454C447.343 288.653 442.719 288.842 438.094 289.02L438.364 296.014ZM466.153 294.821C470.786 294.601 475.414 294.372 480.035 294.133L479.674 287.142C475.062 287.381 470.444 287.609 465.822 287.828L466.153 294.821ZM493.95 293.384C498.581 293.125 503.202 292.856 507.812 292.579L507.391 285.591C502.791 285.868 498.18 286.136 493.559 286.395L493.95 293.384ZM521.693 291.714C526.345 291.415 530.983 291.107 535.604 290.79L535.126 283.806C530.513 284.122 525.885 284.43 521.243 284.729L521.693 291.714ZM549.42 289.814C554.077 289.475 558.716 289.128 563.333 288.772L562.796 281.793C558.188 282.148 553.56 282.494 548.912 282.832L549.42 289.814ZM577.215 287.675C581.82 287.301 586.4 286.919 590.954 286.53L590.358 279.555C585.814 279.944 581.243 280.325 576.649 280.698L577.215 287.675ZM604.944 285.304C609.58 284.887 614.185 284.463 618.757 284.032L618.1 277.062C613.538 277.493 608.943 277.916 604.317 278.332L604.944 285.304ZM632.569 282.697C637.252 282.234 641.896 281.763 646.498 281.286L645.776 274.323C641.185 274.799 636.552 275.269 631.88 275.731L632.569 282.697ZM660.175 279.833C664.885 279.322 669.546 278.803 674.155 278.278L673.363 271.323C668.766 271.847 664.117 272.364 659.419 272.874L660.175 279.833ZM687.921 276.672C692.584 276.115 697.188 275.552 701.728 274.983L700.857 268.037C696.331 268.605 691.741 269.166 687.09 269.722L687.921 276.672ZM715.596 273.201C720.219 272.592 724.769 271.977 729.241 271.357L728.279 264.423C723.824 265.041 719.29 265.654 714.681 266.261L715.596 273.201ZM743.201 269.368C747.812 268.692 752.328 268.012 756.743 267.327L755.67 260.41C751.275 261.092 746.779 261.769 742.187 262.442L743.201 269.368ZM770.737 265.087C775.389 264.318 779.911 263.545 784.294 262.768L783.072 255.875C778.717 256.647 774.223 257.416 769.595 258.181L770.737 265.087ZM798.148 260.214C800.372 259.788 802.552 259.36 804.687 258.932L803.311 252.069C801.195 252.493 799.034 252.917 796.828 253.34L798.148 260.214ZM804.687 258.932C807.102 258.448 809.491 257.951 811.854 257.441L810.378 250.599C808.049 251.101 805.694 251.591 803.311 252.069L804.687 258.932ZM825.718 254.235C830.443 253.065 835.055 251.844 839.557 250.571L837.653 243.835C833.227 245.086 828.689 246.288 824.037 247.439L825.718 254.235ZM853.102 246.487C857.781 244.985 862.33 243.425 866.752 241.811L864.352 235.236C860.018 236.817 855.555 238.348 850.962 239.823L853.102 246.487ZM879.971 236.674C884.496 234.803 888.875 232.873 893.109 230.886L890.136 224.549C886.003 226.488 881.724 228.375 877.297 230.205L879.971 236.674ZM905.972 224.451C910.274 222.157 914.408 219.802 918.379 217.391L914.746 211.408C910.889 213.75 906.868 216.041 902.679 218.274L905.972 224.451ZM930.375 209.602C934.438 206.78 938.302 203.895 941.974 200.955L937.598 195.491C934.053 198.329 930.317 201.119 926.381 203.853L930.375 209.602ZM952.9 191.528C956.511 188.166 959.895 184.748 963.059 181.283L957.89 176.562C954.856 179.885 951.605 183.169 948.131 186.404L952.9 191.528ZM972.328 170.203C975.328 166.274 978.069 162.302 980.562 158.302L974.622 154.599C972.246 158.41 969.631 162.2 966.764 165.955L972.328 170.203ZM987.606 145.63C989.787 141.188 991.682 136.73 993.307 132.278L986.731 129.879C985.192 134.097 983.394 138.326 981.323 142.546L987.606 145.63ZM997.525 118.372C998.693 113.567 999.56 108.793 1000.15 104.073L993.198 103.212C992.646 107.666 991.828 112.175 990.723 116.718L997.525 118.372ZM1001.08 89.5684C1001.1 84.5992 1000.81 79.7252 1000.24 74.9781L993.293 75.812C993.828 80.2721 994.098 84.8574 994.077 89.5377L1001.08 89.5684ZM997.574 60.6114C996.347 55.7888 994.818 51.1517 993.016 46.7412L986.536 49.3882C988.213 53.4934 989.642 57.8223 990.79 62.3372L997.574 60.6114ZM986.435 33.5737C983.832 29.2539 980.931 25.2618 977.771 21.6572L972.507 26.2716C975.379 29.5479 978.038 33.202 980.439 37.186L986.435 33.5737ZM966.834 11.5245C962.721 8.4839 958.332 6.00897 953.727 4.19611L951.163 10.7095C955.157 12.282 959.014 14.4482 962.672 17.1532L966.834 11.5245ZM938.941 0.814419C933.998 0.468102 928.942 0.87942 923.848 2.11988L925.504 8.92113C929.902 7.85029 934.234 7.5018 938.452 7.79731L938.941 0.814419ZM909.885 7.6279C907.741 8.80818 905.606 10.1439 903.483 11.6389L907.515 17.3616C909.434 16.0092 911.351 14.8113 913.261 13.7601L909.885 7.6279ZM903.483 11.6389C901.473 13.055 899.521 14.5386 897.628 16.0859L902.057 21.5063C903.823 20.0632 905.642 18.6805 907.515 17.3616L903.483 11.6389ZM886.952 26.1189C883.638 29.6878 880.558 33.4776 877.713 37.4563L883.407 41.5277C886.085 37.7825 888.977 34.2251 892.081 30.8827L886.952 26.1189ZM869.952 49.8013C867.623 54.0301 865.518 58.4106 863.637 62.9138L870.096 65.6124C871.884 61.3326 873.88 57.1791 876.084 53.1782L869.952 49.8013ZM858.716 76.5871C857.309 81.1925 856.115 85.8894 855.132 90.6514L861.988 92.0659C862.927 87.5111 864.069 83.0246 865.41 78.6316L858.716 76.5871ZM852.836 104.967C852.282 109.75 851.933 114.572 851.789 119.409L858.786 119.618C858.924 114.978 859.259 110.355 859.789 105.771L852.836 104.967ZM851.968 133.887C852.231 138.709 852.697 143.522 853.367 148.302L860.299 147.33C859.657 142.748 859.21 138.132 858.957 133.506L851.968 133.887ZM855.998 162.552C857.085 167.273 858.38 171.939 859.884 176.522L866.535 174.34C865.099 169.962 863.86 165.501 862.82 160.981L855.998 162.552ZM865.059 190.083C867.01 194.535 869.177 198.878 871.561 203.086L877.651 199.635C875.389 195.642 873.329 191.514 871.471 187.274L865.059 190.083ZM879.421 215.351C882.27 219.296 885.341 223.074 888.637 226.66L893.79 221.923C890.687 218.546 887.788 214.981 885.095 211.253L879.421 215.351ZM899.167 236.783C902.863 239.915 906.777 242.83 910.909 245.502L914.709 239.623C910.835 237.118 907.163 234.384 903.692 231.443L899.167 236.783ZM923.693 252.631C928.03 254.692 932.562 256.508 937.288 258.056L939.466 251.403C935.022 249.948 930.766 248.242 926.697 246.308L923.693 252.631ZM951.418 261.75C956.068 262.675 960.875 263.358 965.841 263.785L966.44 256.811C961.727 256.406 957.175 255.758 952.784 254.884L951.418 261.75ZM980.368 264.295C985.051 264.23 989.858 263.95 994.788 263.445L994.074 256.481C989.343 256.966 984.742 257.234 980.271 257.296L980.368 264.295ZM1009.04 261.408C1013.62 260.574 1018.3 259.553 1023.08 258.339L1021.36 251.554C1016.73 252.73 1012.2 253.717 1007.78 254.522L1009.04 261.408ZM1036.94 254.356C1041.43 252.92 1046 251.319 1050.65 249.548L1048.15 243.007C1043.62 244.734 1039.17 246.292 1034.81 247.689L1036.94 254.356ZM1063.76 244.191C1065.98 243.224 1068.21 242.219 1070.47 241.177L1067.53 234.824C1065.32 235.845 1063.13 236.828 1060.96 237.774L1063.76 244.191Z" fill="#7FBAFF"/>
</svg>
