<svg width="843" height="632" viewBox="0 0 843 632" fill="none" xmlns="http://www.w3.org/2000/svg">
<path d="M0.5 15.9996C0.5 24.8361 7.66344 31.9996 16.5 31.9996C25.3366 31.9996 32.5 24.8361 32.5 15.9996C32.5 7.16303 25.3366 -0.000411987 16.5 -0.000411987C7.66344 -0.000411987 0.5 7.16303 0.5 15.9996ZM185 415.501L186.525 418.085L185 415.501ZM253.5 175.5L255.263 177.927L253.5 175.5ZM441.5 583.501L440.2 586.205L441.5 583.501ZM839.99 583.254C839.853 581.602 838.404 580.375 836.753 580.511L809.845 582.738C808.193 582.875 806.966 584.324 807.102 585.975C807.239 587.627 808.688 588.854 810.339 588.718L834.258 586.738L836.237 610.656C836.374 612.308 837.823 613.535 839.474 613.399C841.125 613.262 842.353 611.813 842.217 610.162L839.99 583.254ZM17.1481 18.9287C53.2333 10.9442 80.8762 12.207 101.95 20.0742C122.955 27.9157 137.74 42.432 147.957 61.5934C168.53 100.177 170.447 157.319 166.534 215.284C164.584 244.176 161.204 273.088 158.064 299.774C154.93 326.412 152.026 350.9 151.065 370.777C150.585 380.721 150.585 389.602 151.304 397.083C152.018 404.509 153.464 410.832 156.064 415.472C158.748 420.263 162.752 423.369 168.257 423.81C173.488 424.228 179.571 422.189 186.525 418.085L183.475 412.918C176.917 416.788 172.139 418.101 168.736 417.829C165.609 417.578 163.209 415.949 161.298 412.539C159.303 408.979 157.962 403.636 157.276 396.508C156.596 389.435 156.584 380.875 157.058 371.067C158.007 351.443 160.88 327.19 164.023 300.475C167.16 273.807 170.558 244.752 172.52 215.688C176.432 157.74 174.71 99.014 153.251 58.7703C142.452 38.5179 126.623 22.8805 104.048 14.4531C81.5427 6.05135 52.6417 4.92995 15.8519 13.0704L17.1481 18.9287ZM186.525 418.085C248.495 381.512 288.325 304.368 301.492 244.772C304.794 229.827 306.444 215.883 306.325 203.859C306.207 191.889 304.333 181.567 300.364 174.052C296.318 166.394 289.997 161.541 281.376 161.199C273.042 160.869 263.14 164.791 251.737 173.072L255.263 177.927C266.235 169.959 274.786 166.943 281.138 167.195C287.202 167.435 291.799 170.684 295.058 176.854C298.393 183.168 300.211 192.4 300.325 203.918C300.439 215.382 298.862 228.861 295.633 243.478C282.675 302.132 243.505 377.489 183.475 412.918L186.525 418.085ZM251.737 173.072C227.879 190.4 222.245 222.55 227.798 260.352C233.375 298.319 250.353 343.055 273.217 387.089C296.098 431.155 324.969 474.701 354.494 510.308C383.953 545.836 414.301 573.754 440.2 586.205L442.799 580.797C418.095 568.92 388.42 541.824 359.112 506.478C329.87 471.212 301.233 428.025 278.542 384.324C255.834 340.59 239.176 296.524 233.734 259.48C228.268 222.272 234.23 193.202 255.263 177.927L251.737 173.072ZM440.2 586.205C479.671 605.182 562.341 624.856 643.372 629.995C683.927 632.567 724.249 631.512 758.688 624.837C793.046 618.178 822.011 605.836 839.289 585.44L834.711 581.562C818.739 600.416 791.392 612.387 757.546 618.947C723.782 625.491 684.01 626.56 643.752 624.007C563.159 618.896 481.328 599.321 442.799 580.797L440.2 586.205Z" fill="white"/>
</svg>
