<svg width="194" height="125" viewBox="0 0 194 125" fill="none" xmlns="http://www.w3.org/2000/svg">
<path d="M7.93295 81.6813H7.74932L8.15331 94.7775H0V71.5972H11.422L16.123 84.0714H16.3066L20.3833 71.5972H32.1725V94.7775H23.6887L23.9458 81.7468L23.7254 81.714L18.8775 94.7775H12.7074L7.93295 81.6813ZM34.0018 94.7775L44.2485 71.5972H53.5404L63.6769 94.7775H54.1647L52.8058 91.3725H44.5424L43.2569 94.7775H34.0018ZM50.8593 85.4137L48.7659 79.6841L46.6358 85.4137H50.8593ZM82.238 94.7775L77.537 88.0002L73.0196 94.7775H62.6627L71.9546 82.6963L63.1402 71.5972H73.6807L77.7941 77.6869L81.7238 71.5972H92.0073L83.3398 82.598L92.9255 94.7775H82.238ZM94.9016 94.7775V71.5972H103.716V94.7775H94.9016ZM116.498 81.6813H116.315L116.719 94.7775H108.565V71.5972H119.987L124.688 84.0714H124.872L128.949 71.5972H140.738V94.7775H132.254L132.511 81.7468L132.291 81.714L127.443 94.7775H121.273L116.498 81.6813ZM157.259 95.4323C153.366 95.4323 150.379 94.5266 148.298 92.7149C146.241 90.9032 145.213 88.5568 145.213 85.6757V71.5972H153.954V84.8244C153.954 85.9376 154.248 86.8106 154.835 87.4436C155.447 88.0548 156.304 88.3604 157.406 88.3604C158.508 88.3604 159.353 88.0548 159.94 87.4436C160.552 86.8106 160.858 85.9376 160.858 84.8244V71.5972H169.563V85.6757C169.563 88.535 168.485 90.8814 166.331 92.7149C164.201 94.5266 161.176 95.4323 157.259 95.4323ZM182.578 95.4323C180.521 95.4323 178.513 95.1159 176.555 94.4829C174.62 93.8498 172.98 92.9986 171.633 91.9291L176.959 86.7561C177.595 87.3891 178.428 87.9238 179.456 88.3604C180.485 88.797 181.513 89.0152 182.541 89.0152C183.838 89.0152 184.488 88.655 184.488 87.9348C184.488 87.5201 184.205 87.1817 183.643 86.9198C183.079 86.6579 181.831 86.2432 179.897 85.6757C177.815 85.0645 176.175 84.246 174.976 83.2201C173.775 82.1942 173.176 80.7536 173.176 78.8983C173.176 77.5232 173.494 76.3118 174.131 75.2641C174.792 74.1946 175.661 73.3543 176.739 72.7431C177.815 72.132 178.966 71.6845 180.191 71.4008C181.44 71.0952 182.736 70.9424 184.084 70.9424C185.821 70.9424 187.573 71.248 189.336 71.8591C191.123 72.4703 192.678 73.3106 194 74.3801L188.564 79.324C188.001 78.7128 187.29 78.2326 186.434 77.8834C185.601 77.5123 184.818 77.3268 184.084 77.3268C182.663 77.3268 181.954 77.676 181.954 78.3745C181.954 78.7019 182.125 78.9529 182.468 79.1275C182.81 79.2803 183.496 79.5095 184.525 79.8151C185.234 80.0333 185.797 80.208 186.214 80.3389C186.629 80.4481 187.18 80.6336 187.867 80.8955C188.576 81.1574 189.139 81.4084 189.556 81.6486C189.997 81.8887 190.474 82.2051 190.988 82.598C191.527 82.9909 191.943 83.3948 192.237 83.8094C192.531 84.2241 192.775 84.7262 192.972 85.3155C193.192 85.883 193.302 86.4942 193.302 87.149C193.302 89.7682 192.237 91.8091 190.107 93.2715C187.977 94.7121 185.467 95.4323 182.578 95.4323ZM40.3256 111.903H40.1419L40.5459 125H32.3926V101.819H43.8146L48.5156 114.293H48.6992L52.7759 101.819H64.5651V125H56.0813L56.3384 111.969L56.118 111.936L51.2701 125H45.1L40.3256 111.903ZM69.406 125V101.819H87.2919V108.302H77.6328V110.299H86.7042V116.356H77.6328V118.517H87.9162V125H69.406ZM101.966 125H91.5352V101.819H101.231C102.944 101.819 104.536 101.928 106.005 102.147C107.475 102.365 108.883 102.758 110.229 103.325C111.601 103.871 112.75 104.569 113.681 105.421C114.636 106.25 115.395 107.341 115.958 108.695C116.522 110.026 116.803 111.554 116.803 113.278C116.803 115.243 116.399 117 115.591 118.55C114.783 120.078 113.669 121.3 112.249 122.217C110.853 123.133 109.287 123.832 107.548 124.312C105.809 124.77 103.949 125 101.966 125ZM101.892 108.433H99.9456V118.321H101.562C105.822 118.321 107.952 116.618 107.952 113.213C107.952 111.729 107.401 110.561 106.299 109.71C105.222 108.859 103.752 108.433 101.892 108.433ZM120.479 125V101.819H129.293V125H120.479ZM131.132 125L141.379 101.819H150.671L160.807 125H151.295L149.936 121.595H141.673L140.387 125H131.132ZM147.99 115.636L145.896 109.906L143.766 115.636H147.99Z" fill="white"/>
<path d="M129.949 4L96.8945 21.1498V58.022L129.949 39.1572V4Z" fill="#0E0E0E"/>
<path d="M63.8406 5.63672L96.8945 22.007V57.2031L63.8406 39.1958V5.63672Z" fill="#0E0E0E"/>
<path d="M96.8945 40.8337V57.204L113.422 48.2004V31.8301L96.8945 40.8337Z" fill="white"/>
<path d="M96.8945 40.8337V57.204L80.3675 48.2004V31.8301L96.8945 40.8337Z" fill="white"/>
<path d="M131.031 7.27344V4.15632L128.198 5.4554L96.9076 19.8009L66.5313 5.46475L63.6777 4.11798V7.27344V40.014V41.2236L64.7489 41.7853L95.9666 58.1556L96.8821 58.6357L97.8032 58.1664L129.939 41.7961L131.031 41.2398V40.014V7.27344Z" stroke="white" stroke-width="4"/>
</svg>
