<svg width="116" height="113" viewBox="0 0 116 113" fill="none" xmlns="http://www.w3.org/2000/svg">
<path d="M63.6174 37.5814L64.2686 40.7771L66.8217 38.7476L88.8435 21.2421L75.428 45.9692L73.8727 48.8359L77.133 48.9223L105.255 49.6677L79.0839 59.9864L76.0498 61.1827L78.4917 63.3445L99.5554 81.992L72.8743 73.0741L69.7812 72.0403L70.2622 75.266L74.4115 103.09L59.7049 79.1085L58 76.3283L56.2951 79.1085L41.5885 103.09L45.7378 75.266L46.2188 72.0403L43.1257 73.0741L16.4446 81.992L37.5083 63.3445L39.9502 61.1827L36.9161 59.9864L10.745 49.6677L38.867 48.9223L42.1273 48.8359L40.572 45.9692L27.1565 21.2421L49.1783 38.7476L51.7314 40.7771L52.3826 37.5814L58 10.016L63.6174 37.5814Z" stroke="#FFD130" stroke-width="4"/>
</svg>
