<svg width="44" height="44" viewBox="0 0 44 44" fill="none" xmlns="http://www.w3.org/2000/svg">
<path d="M19.1577 28.4167C19.9216 29.1806 20.8841 29.5399 22.0452 29.4947C23.2063 29.4495 24.0466 29.029 24.566 28.2334L34.8327 12.8334L19.4327 23.1C18.6382 23.65 18.2031 24.4824 18.1273 25.597C18.0516 26.7117 18.395 27.6516 19.1577 28.4167ZM9.34935 36.6667C8.67713 36.6667 8.05868 36.5213 7.49402 36.2304C6.92935 35.9395 6.47835 35.5044 6.14102 34.925C5.34657 33.4889 4.73546 31.999 4.30768 30.4554C3.8799 28.9117 3.66602 27.3155 3.66602 25.6667C3.66602 23.1306 4.14757 20.7473 5.11068 18.5167C6.07379 16.2862 7.37974 14.3459 9.02852 12.6959C10.6785 11.0459 12.6188 9.73993 14.8493 8.77804C17.0799 7.81615 19.4632 7.3346 21.9993 7.33337C24.5049 7.33337 26.8577 7.80699 29.0577 8.75421C31.2577 9.70143 33.1827 10.9927 34.8327 12.628C36.4827 14.2622 37.7966 16.1719 38.7743 18.3572C39.7521 20.5425 40.2563 22.8874 40.2868 25.3917C40.3174 27.0723 40.1261 28.7149 39.713 30.3197C39.2999 31.9245 38.6662 33.4596 37.8119 34.925C37.4757 35.5056 37.0247 35.9413 36.4588 36.2322C35.893 36.5231 35.2745 36.6679 34.6035 36.6667H9.34935Z" fill="white"/>
</svg>
