<svg width="38" height="44" viewBox="0 0 38 44" fill="none" xmlns="http://www.w3.org/2000/svg">
<path d="M29.5556 4.4H33.7778C34.8976 4.4 35.9715 4.86357 36.7633 5.68873C37.5552 6.51389 38 7.63305 38 8.8V39.6C38 40.767 37.5552 41.8861 36.7633 42.7113C35.9715 43.5364 34.8976 44 33.7778 44H4.22222C3.10242 44 2.02848 43.5364 1.23666 42.7113C0.44484 41.8861 0 40.767 0 39.6V8.8C0 6.38 1.9 4.4 4.22222 4.4H8.44444V0H12.6667V4.4H25.3333V0H29.5556V4.4ZM4.22222 13.2V39.6H33.7778V13.2H4.22222Z" fill="white"/>
<path d="M15.208 22.912V20.8H22.44V22.672L18.648 32H16.312L19.992 22.912H15.208Z" fill="white"/>
</svg>
