<svg width="41" height="41" viewBox="0 0 41 41" fill="none" xmlns="http://www.w3.org/2000/svg">
<path d="M34.375 29.75C35.6016 29.75 36.778 30.2373 37.6454 31.1046C38.5127 31.972 39 33.1484 39 34.375C39 35.6016 38.5127 36.778 37.6454 37.6454C36.778 38.5127 35.6016 39 34.375 39C33.1484 39 31.972 38.5127 31.1046 37.6454C30.2373 36.778 29.75 35.6016 29.75 34.375M34.375 29.75C33.1484 29.75 31.972 30.2373 31.1046 31.1046C30.2373 31.972 29.75 33.1484 29.75 34.375M34.375 29.75V11.25M29.75 34.375H11.25M11.25 34.375C11.25 33.1484 10.7627 31.972 9.89537 31.1046C9.02801 30.2373 7.85163 29.75 6.625 29.75M11.25 34.375C11.25 35.6016 10.7627 36.778 9.89537 37.6454C9.02801 38.5127 7.85163 39 6.625 39C5.39837 39 4.22199 38.5127 3.35463 37.6454C2.48728 36.778 2 35.6016 2 34.375C2 33.1484 2.48728 31.972 3.35463 31.1046C4.22199 30.2373 5.39837 29.75 6.625 29.75M6.625 29.75V11.25M11.25 6.625C11.25 5.39837 10.7627 4.22199 9.89537 3.35463C9.02801 2.48728 7.85163 2 6.625 2C5.39837 2 4.22199 2.48728 3.35463 3.35463C2.48728 4.22199 2 5.39837 2 6.625C2 7.85163 2.48728 9.02801 3.35463 9.89537C4.22199 10.7627 5.39837 11.25 6.625 11.25M11.25 6.625C11.25 7.85163 10.7627 9.02801 9.89537 9.89537C9.02801 10.7627 7.85163 11.25 6.625 11.25M11.25 6.625H29.75M29.75 6.625C29.75 5.39837 30.2373 4.22199 31.1046 3.35463C31.972 2.48728 33.1484 2 34.375 2C35.6016 2 36.778 2.48728 37.6454 3.35463C38.5127 4.22199 39 5.39837 39 6.625C39 7.85163 38.5127 9.02801 37.6454 9.89537C36.778 10.7627 35.6016 11.25 34.375 11.25M29.75 6.625C29.75 7.85163 30.2373 9.02801 31.1046 9.89537C31.972 10.7627 33.1484 11.25 34.375 11.25M10.0938 10.0938L17.0312 17.0312M25.125 20.5C25.125 19.2734 24.6377 18.097 23.7704 17.2296C22.903 16.3623 21.7266 15.875 20.5 15.875C19.2734 15.875 18.097 16.3623 17.2296 17.2296C16.3623 18.097 15.875 19.2734 15.875 20.5C15.875 21.7266 16.3623 22.903 17.2296 23.7704C18.097 24.6377 19.2734 25.125 20.5 25.125C21.7266 25.125 22.903 24.6377 23.7704 23.7704C24.6377 22.903 25.125 21.7266 25.125 20.5Z" stroke="white" stroke-width="4" stroke-linecap="round" stroke-linejoin="round"/>
</svg>
