<svg width="35" height="35" viewBox="0 0 35 35" fill="none" xmlns="http://www.w3.org/2000/svg">
<mask id="mask0_254_2587" style="mask-type:luminance" maskUnits="userSpaceOnUse" x="0" y="0" width="35" height="35">
<path d="M17.5 14.0556C18.2916 14.0556 19.0754 13.8996 19.8067 13.5967C20.5381 13.2938 21.2026 12.8498 21.7623 12.2901C22.322 11.7303 22.766 11.0658 23.0689 10.3345C23.3719 9.60319 23.5278 8.81936 23.5278 8.02778C23.5278 7.2362 23.3719 6.45237 23.0689 5.72105C22.766 4.98972 22.322 4.32523 21.7623 3.7655C21.2026 3.20576 20.5381 2.76176 19.8067 2.45884C19.0754 2.15591 18.2916 2 17.5 2C15.9013 2 14.3681 2.63507 13.2377 3.7655C12.1073 4.89592 11.4722 6.42911 11.4722 8.02778C11.4722 9.62644 12.1073 11.1596 13.2377 12.2901C14.3681 13.4205 15.9013 14.0556 17.5 14.0556ZM2 31.9667V33H33V31.9667C33 28.1089 33 26.18 32.2491 24.7058C31.5887 23.4096 30.5348 22.3558 29.2387 21.6953C27.7644 20.9444 25.8356 20.9444 21.9778 20.9444H13.0222C9.16444 20.9444 7.23556 20.9444 5.76133 21.6953C4.46516 22.3558 3.41134 23.4096 2.75089 24.7058C2 26.18 2 28.1089 2 31.9667Z" fill="white" stroke="white" stroke-width="4" stroke-linecap="round" stroke-linejoin="round"/>
</mask>
<g mask="url(#mask0_254_2587)">
<path d="M-3.16602 -3.16663H38.1673V38.1667H-3.16602V-3.16663Z" fill="white"/>
</g>
</svg>
